<mxfile host="app.diagrams.net" modified="2021-11-16T10:45:02.159Z" agent="5.0 (Windows NT 6.1; Win64; x64) AppleWebKit/537.36 (KHTML, like Gecko) Chrome/95.0.4638.69 Safari/537.36" etag="vyXtuh-HVQ7BG49x-oYi" version="15.7.4" type="github">
  <diagram id="C5RBs43oDa-KdzZeNtuy" name="Page-1">
    <mxGraphModel dx="1422" dy="832" grid="1" gridSize="20" guides="1" tooltips="1" connect="1" arrows="1" fold="1" page="1" pageScale="1" pageWidth="827" pageHeight="1169" math="0" shadow="0">
      <root>
        <mxCell id="WIyWlLk6GJQsqaUBKTNV-0" />
        <mxCell id="WIyWlLk6GJQsqaUBKTNV-1" parent="WIyWlLk6GJQsqaUBKTNV-0" />
        <mxCell id="jqMBBB5dmKakG8RYjpE1-1" value="" style="edgeStyle=orthogonalEdgeStyle;rounded=0;orthogonalLoop=1;jettySize=auto;html=1;" parent="WIyWlLk6GJQsqaUBKTNV-1" source="WIyWlLk6GJQsqaUBKTNV-3" target="gnqvZzanWuQr_gzrarPM-1" edge="1">
          <mxGeometry relative="1" as="geometry" />
        </mxCell>
        <mxCell id="WIyWlLk6GJQsqaUBKTNV-3" value="&lt;font style=&quot;font-size: 20px&quot;&gt;Начало&lt;/font&gt;" style="rounded=1;whiteSpace=wrap;html=1;fontSize=12;glass=0;strokeWidth=1;shadow=0;" parent="WIyWlLk6GJQsqaUBKTNV-1" vertex="1">
          <mxGeometry x="160" y="80" width="120" height="40" as="geometry" />
        </mxCell>
        <mxCell id="jqMBBB5dmKakG8RYjpE1-4" value="" style="edgeStyle=orthogonalEdgeStyle;rounded=0;orthogonalLoop=1;jettySize=auto;html=1;" parent="WIyWlLk6GJQsqaUBKTNV-1" source="gnqvZzanWuQr_gzrarPM-0" target="jqMBBB5dmKakG8RYjpE1-3" edge="1">
          <mxGeometry relative="1" as="geometry" />
        </mxCell>
        <mxCell id="gnqvZzanWuQr_gzrarPM-0" value="&lt;span style=&quot;font-size: 20px&quot;&gt;n&lt;/span&gt;" style="shape=parallelogram;perimeter=parallelogramPerimeter;whiteSpace=wrap;html=1;fixedSize=1;" parent="WIyWlLk6GJQsqaUBKTNV-1" vertex="1">
          <mxGeometry x="170" y="220" width="100" height="40" as="geometry" />
        </mxCell>
        <mxCell id="jqMBBB5dmKakG8RYjpE1-2" value="" style="edgeStyle=orthogonalEdgeStyle;rounded=0;orthogonalLoop=1;jettySize=auto;html=1;exitX=0.5;exitY=0.667;exitDx=0;exitDy=0;exitPerimeter=0;" parent="WIyWlLk6GJQsqaUBKTNV-1" source="gnqvZzanWuQr_gzrarPM-1" target="gnqvZzanWuQr_gzrarPM-0" edge="1">
          <mxGeometry relative="1" as="geometry" />
        </mxCell>
        <mxCell id="gnqvZzanWuQr_gzrarPM-1" value="&lt;font style=&quot;font-size: 20px&quot;&gt;&quot;enter integer n&quot;&lt;/font&gt;" style="shape=document;whiteSpace=wrap;html=1;boundedLbl=1;" parent="WIyWlLk6GJQsqaUBKTNV-1" vertex="1">
          <mxGeometry x="145" y="139" width="150" height="60" as="geometry" />
        </mxCell>
        <mxCell id="jqMBBB5dmKakG8RYjpE1-6" value="" style="edgeStyle=orthogonalEdgeStyle;rounded=0;orthogonalLoop=1;jettySize=auto;html=1;exitX=0.508;exitY=0.825;exitDx=0;exitDy=0;exitPerimeter=0;" parent="WIyWlLk6GJQsqaUBKTNV-1" source="jqMBBB5dmKakG8RYjpE1-3" target="jqMBBB5dmKakG8RYjpE1-5" edge="1">
          <mxGeometry relative="1" as="geometry" />
        </mxCell>
        <mxCell id="jqMBBB5dmKakG8RYjpE1-3" value="n" style="shape=document;whiteSpace=wrap;html=1;boundedLbl=1;" parent="WIyWlLk6GJQsqaUBKTNV-1" vertex="1">
          <mxGeometry x="180" y="280" width="80" height="40" as="geometry" />
        </mxCell>
        <mxCell id="jqMBBB5dmKakG8RYjpE1-10" value="" style="edgeStyle=orthogonalEdgeStyle;rounded=0;orthogonalLoop=1;jettySize=auto;html=1;" parent="WIyWlLk6GJQsqaUBKTNV-1" source="jqMBBB5dmKakG8RYjpE1-5" target="jqMBBB5dmKakG8RYjpE1-9" edge="1">
          <mxGeometry relative="1" as="geometry" />
        </mxCell>
        <mxCell id="jqMBBB5dmKakG8RYjpE1-5" value="y=1" style="rounded=0;whiteSpace=wrap;html=1;" parent="WIyWlLk6GJQsqaUBKTNV-1" vertex="1">
          <mxGeometry x="182.5" y="340" width="75" height="20" as="geometry" />
        </mxCell>
        <mxCell id="jqMBBB5dmKakG8RYjpE1-12" value="" style="edgeStyle=orthogonalEdgeStyle;rounded=0;orthogonalLoop=1;jettySize=auto;html=1;" parent="WIyWlLk6GJQsqaUBKTNV-1" source="jqMBBB5dmKakG8RYjpE1-9" target="jqMBBB5dmKakG8RYjpE1-11" edge="1">
          <mxGeometry relative="1" as="geometry" />
        </mxCell>
        <mxCell id="jqMBBB5dmKakG8RYjpE1-9" value="k=1" style="whiteSpace=wrap;html=1;rounded=0;" parent="WIyWlLk6GJQsqaUBKTNV-1" vertex="1">
          <mxGeometry x="180" y="380" width="80" height="20" as="geometry" />
        </mxCell>
        <mxCell id="jqMBBB5dmKakG8RYjpE1-16" value="" style="edgeStyle=orthogonalEdgeStyle;rounded=0;orthogonalLoop=1;jettySize=auto;html=1;" parent="WIyWlLk6GJQsqaUBKTNV-1" source="jqMBBB5dmKakG8RYjpE1-11" target="jqMBBB5dmKakG8RYjpE1-15" edge="1">
          <mxGeometry relative="1" as="geometry" />
        </mxCell>
        <mxCell id="jqMBBB5dmKakG8RYjpE1-11" value="k&amp;lt;=n" style="rhombus;whiteSpace=wrap;html=1;rounded=0;" parent="WIyWlLk6GJQsqaUBKTNV-1" vertex="1">
          <mxGeometry x="160" y="440" width="120" height="40" as="geometry" />
        </mxCell>
        <mxCell id="jqMBBB5dmKakG8RYjpE1-18" value="" style="edgeStyle=orthogonalEdgeStyle;rounded=0;orthogonalLoop=1;jettySize=auto;html=1;" parent="WIyWlLk6GJQsqaUBKTNV-1" source="jqMBBB5dmKakG8RYjpE1-15" target="jqMBBB5dmKakG8RYjpE1-17" edge="1">
          <mxGeometry relative="1" as="geometry" />
        </mxCell>
        <mxCell id="jqMBBB5dmKakG8RYjpE1-15" value="y=y*k" style="rounded=0;whiteSpace=wrap;html=1;" parent="WIyWlLk6GJQsqaUBKTNV-1" vertex="1">
          <mxGeometry x="185" y="500" width="70" height="20" as="geometry" />
        </mxCell>
        <mxCell id="jqMBBB5dmKakG8RYjpE1-19" value="" style="edgeStyle=orthogonalEdgeStyle;rounded=0;orthogonalLoop=1;jettySize=auto;html=1;exitX=0.5;exitY=1;exitDx=0;exitDy=0;entryX=0.5;entryY=0;entryDx=0;entryDy=0;" parent="WIyWlLk6GJQsqaUBKTNV-1" source="jqMBBB5dmKakG8RYjpE1-17" edge="1" target="jqMBBB5dmKakG8RYjpE1-11">
          <mxGeometry relative="1" as="geometry">
            <mxPoint x="220" y="420" as="targetPoint" />
            <mxPoint x="220" y="620" as="sourcePoint" />
            <Array as="points">
              <mxPoint x="220" y="580" />
              <mxPoint x="140" y="580" />
              <mxPoint x="140" y="420" />
              <mxPoint x="220" y="420" />
            </Array>
          </mxGeometry>
        </mxCell>
        <mxCell id="jqMBBB5dmKakG8RYjpE1-17" value="k=k+1" style="rounded=0;whiteSpace=wrap;html=1;" parent="WIyWlLk6GJQsqaUBKTNV-1" vertex="1">
          <mxGeometry x="180" y="540" width="80" height="20" as="geometry" />
        </mxCell>
        <mxCell id="jqMBBB5dmKakG8RYjpE1-23" value="да" style="text;html=1;strokeColor=none;fillColor=none;align=center;verticalAlign=middle;whiteSpace=wrap;rounded=0;" parent="WIyWlLk6GJQsqaUBKTNV-1" vertex="1">
          <mxGeometry x="210" y="470" width="60" height="30" as="geometry" />
        </mxCell>
        <mxCell id="jqMBBB5dmKakG8RYjpE1-25" value="нет" style="text;html=1;strokeColor=none;fillColor=none;align=center;verticalAlign=middle;whiteSpace=wrap;rounded=0;" parent="WIyWlLk6GJQsqaUBKTNV-1" vertex="1">
          <mxGeometry x="262.5" y="420" width="60" height="30" as="geometry" />
        </mxCell>
        <mxCell id="jqMBBB5dmKakG8RYjpE1-31" value="" style="edgeStyle=orthogonalEdgeStyle;rounded=0;orthogonalLoop=1;jettySize=auto;html=1;exitX=0.494;exitY=0.843;exitDx=0;exitDy=0;exitPerimeter=0;" parent="WIyWlLk6GJQsqaUBKTNV-1" source="jqMBBB5dmKakG8RYjpE1-27" edge="1">
          <mxGeometry relative="1" as="geometry">
            <mxPoint x="220" y="720" as="targetPoint" />
          </mxGeometry>
        </mxCell>
        <mxCell id="jqMBBB5dmKakG8RYjpE1-27" value="&quot;result &quot; , y" style="shape=document;whiteSpace=wrap;html=1;boundedLbl=1;" parent="WIyWlLk6GJQsqaUBKTNV-1" vertex="1">
          <mxGeometry x="180" y="660" width="80" height="40" as="geometry" />
        </mxCell>
        <mxCell id="jqMBBB5dmKakG8RYjpE1-30" value="конец" style="rounded=1;whiteSpace=wrap;html=1;" parent="WIyWlLk6GJQsqaUBKTNV-1" vertex="1">
          <mxGeometry x="190" y="720" width="60" height="20" as="geometry" />
        </mxCell>
        <mxCell id="jx9ffOYZ1O-TRfDwBdYd-2" value="" style="edgeStyle=orthogonalEdgeStyle;rounded=0;orthogonalLoop=1;jettySize=auto;html=1;exitX=0.5;exitY=1;exitDx=0;exitDy=0;entryX=0.531;entryY=0.006;entryDx=0;entryDy=0;entryPerimeter=0;" edge="1" parent="WIyWlLk6GJQsqaUBKTNV-1" source="jqMBBB5dmKakG8RYjpE1-21" target="jqMBBB5dmKakG8RYjpE1-27">
          <mxGeometry relative="1" as="geometry">
            <mxPoint x="280" y="660" as="targetPoint" />
          </mxGeometry>
        </mxCell>
        <mxCell id="jqMBBB5dmKakG8RYjpE1-21" value="y=y*2" style="whiteSpace=wrap;html=1;rounded=0;" parent="WIyWlLk6GJQsqaUBKTNV-1" vertex="1">
          <mxGeometry x="182.5" y="620" width="80" height="20" as="geometry" />
        </mxCell>
        <mxCell id="ZqPdpS3cSUywaaMT1Rlg-1" value="" style="endArrow=classic;html=1;rounded=0;edgeStyle=orthogonalEdgeStyle;exitX=1;exitY=0.5;exitDx=0;exitDy=0;entryX=0.5;entryY=0;entryDx=0;entryDy=0;" parent="WIyWlLk6GJQsqaUBKTNV-1" target="jqMBBB5dmKakG8RYjpE1-21" edge="1" source="jqMBBB5dmKakG8RYjpE1-11">
          <mxGeometry width="50" height="50" relative="1" as="geometry">
            <mxPoint x="380" y="460" as="sourcePoint" />
            <mxPoint x="320" y="620" as="targetPoint" />
            <Array as="points">
              <mxPoint x="300" y="460" />
              <mxPoint x="300" y="600" />
              <mxPoint x="223" y="600" />
              <mxPoint x="223" y="620" />
            </Array>
          </mxGeometry>
        </mxCell>
      </root>
    </mxGraphModel>
  </diagram>
</mxfile>
